<svg xmlns="http://www.w3.org/2000/svg" width="900" height="600" viewBox="0 0 900 600" role="img" aria-labelledby="title desc">
  <title id="title">Load snapshot recipe</title>
  <desc id="desc">Annotated mock screenshot for loading a saved Kforge Labs snapshot.</desc>
  <rect width="900" height="600" fill="#131315"/>
  <g font-family="Arial, sans-serif">
    <rect x="50" y="44" width="326" height="500" rx="4" fill="#151515" stroke="#302f2f"/>

    <circle cx="72" cy="76" r="7" fill="#6fc56f"/>
    <text x="96" y="84" fill="#f9fafb" font-size="22">Koolook_v03</text>
    <text x="236" y="84" fill="#707982" font-size="15">· saved</text>
    <rect x="270" y="54" width="42" height="34" rx="6" fill="#162556" stroke="#68aaff" stroke-width="3"/>
    <text x="282" y="79" fill="#f9fafb" font-size="23">↧</text>
    <rect x="320" y="54" width="42" height="34" rx="6" fill="#1a1a1f" stroke="#707982"/>
    <text x="333" y="79" fill="#f9fafb" font-size="23">▣</text>
    <path d="M64 112 H362" stroke="#302f2f" stroke-width="2"/>

    <text x="64" y="150" fill="#9ca3af" font-size="15" font-weight="700" letter-spacing="3">TOOLS</text>
    <rect x="230" y="126" width="42" height="34" rx="6" fill="#1a1a1f" stroke="#707982"/>
    <text x="242" y="151" fill="#f9fafb" font-size="23">↓</text>
    <rect x="280" y="126" width="42" height="34" rx="6" fill="#1a1a1f" stroke="#707982"/>
    <text x="292" y="151" fill="#f9fafb" font-size="23">↧</text>
    <rect x="330" y="126" width="34" height="34" rx="6" fill="#1a1a1f" stroke="#707982"/>
    <text x="337" y="151" fill="#f9fafb" font-size="22">▦</text>
    <path d="M64 184 H362" stroke="#302f2f" stroke-width="2"/>

    <rect x="64" y="212" width="298" height="48" rx="6" fill="#1a1a1f" stroke="#707982"/>
    <text x="88" y="243" fill="#707982" font-size="23">⌕</text>
    <text x="122" y="243" fill="#707982" font-size="20">Search nodes &amp; workflows...</text>
    <path d="M64 288 H362" stroke="#302f2f" stroke-width="2"/>

    <text x="64" y="336" fill="#9ca3af" font-size="17" font-weight="700" letter-spacing="2">NODES</text>
    <rect x="214" y="312" width="58" height="42" rx="6" fill="#162556" stroke="#4268ba"/>
    <text x="233" y="340" fill="#f9fafb" font-size="24">⌘</text>
    <rect x="272" y="312" width="50" height="42" rx="6" fill="#1a1a1f" stroke="#707982"/>
    <text x="290" y="340" fill="#f9fafb" font-size="24">≡</text>
    <path d="M64 380 H362" stroke="#302f2f" stroke-width="2"/>

    <text x="64" y="428" fill="#9ca3af" font-size="17" font-weight="700" letter-spacing="2">WORKFLOWS</text>
    <rect x="244" y="404" width="42" height="34" rx="6" fill="#1a1a1f" stroke="#707982"/>
    <text x="256" y="429" fill="#f9fafb" font-size="22">▣</text>
    <rect x="294" y="404" width="42" height="34" rx="6" fill="#1a1a1f" stroke="#707982"/>
    <text x="302" y="429" fill="#f9fafb" font-size="22">▦</text>
    <path d="M64 468 H362" stroke="#302f2f" stroke-width="2"/>

    <g transform="translate(430 64)">
      <rect width="408" height="388" rx="14" fill="#151515" stroke="#707982" stroke-width="2"/>
      <text x="34" y="58" fill="#f9fafb" font-size="29" font-weight="700">Load snapshot</text>
      <text x="34" y="112" fill="#d8d8d8" font-size="22" font-weight="700">Library folder: Test_PRESETS</text>
      <text x="34" y="142" fill="#9ca3af" font-size="20">/Volumes/Data/ComfyUI_presets/Test_PRESETS</text>
      <rect x="318" y="84" width="58" height="34" rx="6" fill="#1a1a1f" stroke="#707982"/>
      <text x="330" y="108" fill="#f9fafb" font-size="19">📂 Open</text>

      <rect x="34" y="172" width="340" height="82" rx="6" fill="#151515" stroke="#302f2f"/>
      <text x="54" y="207" fill="#f9fafb" font-size="26">Koolook_v03</text>
      <text x="54" y="238" fill="#9ca3af" font-size="21">6 workflows · 9 picks · saved May 8, 12:56 AM</text>
      <rect x="330" y="200" width="34" height="34" rx="5" fill="#1a1a1f" stroke="#707982"/>
      <text x="342" y="224" fill="#f9fafb" font-size="20">×</text>

      <path d="M34 286 H374" stroke="#302f2f" stroke-width="2"/>
      <text x="34" y="330" fill="#d8d8d8" font-size="22">▶ Recovery auto-saves</text>
      <rect x="302" y="354" width="72" height="42" rx="6" fill="#1a1a1f" stroke="#707982"/>
      <text x="322" y="382" fill="#f9fafb" font-size="20">Close</text>
    </g>

    <path d="M292 72 H410" stroke="#68aaff" stroke-width="4"/>
    <path d="M410 72 l-16 -11 v22 z" fill="#68aaff"/>
    <circle cx="292" cy="72" r="15" fill="#162556" stroke="#68aaff" stroke-width="3"/>
    <text x="287" y="78" fill="#f9fafb" font-size="16" font-weight="700">L</text>

    <text x="430" y="514" fill="#c9944b" font-size="19" font-weight="700">Tip</text>
    <text x="430" y="544" fill="#707982" font-size="18">Click a snapshot row to replace the current sidebar state with that kit.</text>
    <text x="430" y="572" fill="#707982" font-size="18">Open Recovery auto-saves if you need to roll back.</text>
  </g>
</svg>
