<svg xmlns="http://www.w3.org/2000/svg" width="900" height="600" viewBox="0 0 900 600" role="img" aria-labelledby="title desc">
  <title id="title">Save module recipe</title>
  <desc id="desc">Annotated mock screenshot for selecting nodes and saving the selection as a module.</desc>
  <rect width="900" height="600" fill="#131315"/>
  <g font-family="Arial, sans-serif">
    <rect x="44" y="48" width="516" height="360" rx="6" fill="#0e0e0e" stroke="#302f2f"/>

    <path d="M116 250 C180 205 202 184 244 112" fill="none" stroke="#f9fafb" stroke-width="2"/>
    <path d="M286 156 C338 152 374 138 420 132" fill="none" stroke="#707982" stroke-width="2"/>
    <path d="M410 224 L360 278" fill="none" stroke="#68aaff" stroke-width="2"/>

    <g opacity="0.98">
      <rect x="80" y="108" width="250" height="250" fill="#1c4a4a" stroke="#2b6767" stroke-width="5"/>
      <rect x="88" y="126" width="234" height="66" fill="#2e5d5d"/>
      <rect x="88" y="206" width="234" height="9" fill="#111"/>
      <rect x="88" y="220" width="234" height="9" fill="#111"/>
      <rect x="88" y="244" width="234" height="66" fill="#222"/>
      <rect x="88" y="324" width="234" height="9" fill="#111"/>
      <rect x="88" y="338" width="234" height="9" fill="#111"/>
    </g>

    <g opacity="0.98">
      <rect x="356" y="72" width="152" height="282" fill="#3b1e42" stroke="#5b2b60" stroke-width="5"/>
      <rect x="362" y="88" width="140" height="16" fill="#64366a"/>
      <rect x="362" y="312" width="140" height="8" fill="#111"/>
      <rect x="362" y="326" width="140" height="8" fill="#111"/>
      <rect x="362" y="340" width="140" height="8" fill="#111"/>
    </g>

    <g opacity="0.86">
      <rect x="530" y="112" width="132" height="118" fill="#303030" stroke="#343434" stroke-width="4"/>
      <rect x="538" y="146" width="116" height="20" fill="#191919"/>
      <rect x="538" y="178" width="116" height="8" fill="#191919"/>
      <rect x="538" y="192" width="116" height="8" fill="#191919"/>
      <rect x="538" y="206" width="116" height="8" fill="#191919"/>
      <rect x="528" y="250" width="318" height="190" fill="#303030" stroke="#343434" stroke-width="4"/>
    </g>

    <rect x="64" y="92" width="470" height="286" rx="6" fill="none" stroke="#c9944b" stroke-width="4" stroke-dasharray="12 8"/>
    <text x="64" y="444" fill="#c9944b" font-size="19" font-weight="700">1. Select the nodes you want to reuse.</text>

    <g transform="translate(608 56)">
      <rect width="236" height="340" rx="4" fill="#151515" stroke="#302f2f"/>
      <circle cx="24" cy="34" r="6" fill="#6fc56f"/>
      <text x="44" y="42" fill="#f9fafb" font-size="18">Koolook_v03</text>
      <text x="150" y="42" fill="#707982" font-size="13">· saved</text>
      <path d="M16 68 H220" stroke="#302f2f" stroke-width="2"/>
      <text x="16" y="102" fill="#9ca3af" font-size="13" font-weight="700" letter-spacing="2">TOOLS</text>
      <path d="M16 134 H220" stroke="#302f2f" stroke-width="2"/>
      <rect x="16" y="154" width="204" height="38" rx="6" fill="#1a1a1f" stroke="#707982"/>
      <text x="42" y="179" fill="#707982" font-size="17">Search nodes...</text>
      <path d="M16 220 H220" stroke="#302f2f" stroke-width="2"/>
      <text x="16" y="256" fill="#9ca3af" font-size="15" font-weight="700" letter-spacing="2">WORKFLOWS</text>
      <rect x="116" y="274" width="46" height="34" rx="6" fill="#1a1a1f" stroke="#707982"/>
      <text x="128" y="298" fill="#f9fafb" font-size="23">▣</text>
      <rect x="170" y="274" width="46" height="34" rx="6" fill="#1a1a1f" stroke="#707982"/>
      <text x="178" y="298" fill="#f9fafb" font-size="22">▦</text>
      <circle cx="193" cy="291" r="28" fill="none" stroke="#c9944b" stroke-width="5"/>
    </g>

    <path d="M532 378 H668" stroke="#c9944b" stroke-width="4"/>
    <path d="M668 378 l-16 -11 v22 z" fill="#c9944b"/>
    <text x="586" y="450" fill="#c9944b" font-size="19" font-weight="700">2. Click the Workflows save-selection button.</text>

    <rect x="342" y="486" width="238" height="76" rx="10" fill="#1a1a1f" stroke="#4a8058"/>
    <text x="366" y="520" fill="#f9fafb" font-size="22" font-weight="700">Save as module</text>
    <text x="366" y="548" fill="#707982" font-size="16">Insert it later into any canvas.</text>
  </g>
</svg>
