<svg xmlns="http://www.w3.org/2000/svg" width="900" height="600" viewBox="0 0 900 600" role="img" aria-labelledby="title desc">
  <title id="title">Node favorites recipe</title>
  <desc id="desc">Annotated mock screenshot for favorite nodes and search.</desc>
  <rect width="900" height="600" fill="#131315"/>
  <g font-family="Arial, sans-serif">
    <rect x="70" y="64" width="300" height="470" rx="18" fill="#151515" stroke="#302f2f"/>
    <text x="98" y="106" fill="#f9fafb" font-size="22" font-weight="700">Kforge Labs</text>
    <rect x="98" y="144" width="244" height="42" rx="8" fill="#0e0e0e" stroke="#302f2f"/>
    <text x="128" y="170" fill="#707982" font-size="14">vae</text>
    <text x="98" y="230" fill="#f9fafb" font-size="18" font-weight="700">Nodes</text>
    <rect x="98" y="256" width="244" height="44" rx="8" fill="#162556" stroke="#4268ba"/>
    <text x="122" y="284" fill="#f9fafb" font-size="15">Easy HDR VAE Decode</text>
    <rect x="98" y="310" width="244" height="44" rx="8" fill="#162556" stroke="#4268ba"/>
    <text x="122" y="338" fill="#f9fafb" font-size="15">Easy HDR VAE Encode</text>
    <rect x="98" y="386" width="244" height="44" rx="8" fill="#1a1a1f"/>
    <text x="122" y="414" fill="#f9fafb" font-size="15">Image</text>
    <circle cx="316" cy="226" r="18" fill="#162556" stroke="#4a8058" stroke-width="3"/>
    <text x="310" y="233" fill="#f9fafb" font-size="20" font-weight="700">+</text>
    <path d="M316 226 H520" stroke="#4a8058" stroke-width="4"/>
    <path d="M520 226 l-18 -12 v24 z" fill="#4a8058"/>
    <rect x="546" y="160" width="282" height="150" rx="16" fill="#1a1a1f" stroke="#4a8058"/>
    <text x="574" y="204" fill="#f9fafb" font-size="24" font-weight="700">Add favorites</text>
    <text x="574" y="244" fill="#707982" font-size="17">Select a canvas node, then</text>
    <text x="574" y="270" fill="#707982" font-size="17">click + or right-click Add.</text>
    <path d="M346 164 H520" stroke="#4268ba" stroke-width="4"/>
    <path d="M520 164 l-18 -12 v24 z" fill="#4268ba"/>
    <rect x="546" y="350" width="282" height="142" rx="16" fill="#1a1a1f" stroke="#4268ba"/>
    <text x="574" y="394" fill="#f9fafb" font-size="24" font-weight="700">Search stays simple</text>
    <text x="574" y="434" fill="#707982" font-size="17">Type what you need and the</text>
    <text x="574" y="460" fill="#707982" font-size="17">Nodes list flattens for scanning.</text>
  </g>
</svg>
