<svg xmlns="http://www.w3.org/2000/svg" width="1200" height="520" viewBox="0 0 1200 520" role="img" aria-labelledby="title desc">
  <title id="title">Snapshot mental model</title>
  <desc id="desc">Sidebar state becomes a snapshot file in a library, then can be loaded later.</desc>
  <rect width="1200" height="520" fill="#131315"/>
  <g font-family="Arial, sans-serif">
    <text x="60" y="72" fill="#4268ba" font-size="17" font-weight="700" letter-spacing="2">MENTAL MODEL</text>
    <text x="60" y="116" fill="#f9fafb" font-size="34" font-weight="700">Snapshot saves the whole project kit.</text>
    <g transform="translate(72 178)">
      <rect width="210" height="190" rx="16" fill="#1a1a1f" stroke="#302f2f"/>
      <text x="24" y="42" fill="#f9fafb" font-size="22" font-weight="700">Sidebar state</text>
      <text x="24" y="82" fill="#707982" font-size="16">favorite nodes</text>
      <text x="24" y="112" fill="#707982" font-size="16">workflows</text>
      <text x="24" y="142" fill="#707982" font-size="16">modules + tags</text>
    </g>
    <path d="M306 273 H430" stroke="#4268ba" stroke-width="4"/>
    <path d="M430 273 l-18 -12 v24 z" fill="#4268ba"/>
    <g transform="translate(456 178)">
      <rect width="210" height="190" rx="16" fill="#162556" stroke="#4268ba"/>
      <text x="24" y="42" fill="#f9fafb" font-size="22" font-weight="700">Snapshot file</text>
      <text x="24" y="82" fill="#707982" font-size="16">Client_Shot010</text>
      <text x="24" y="112" fill="#707982" font-size="16">portable JSON</text>
      <text x="24" y="142" fill="#707982" font-size="16">saved on disk</text>
    </g>
    <path d="M690 273 H814" stroke="#4a8058" stroke-width="4"/>
    <path d="M814 273 l-18 -12 v24 z" fill="#4a8058"/>
    <g transform="translate(840 178)">
      <rect width="260" height="190" rx="16" fill="#1a1a1f" stroke="#302f2f"/>
      <text x="24" y="42" fill="#f9fafb" font-size="22" font-weight="700">Project library</text>
      <text x="24" y="82" fill="#707982" font-size="16">one folder for a show</text>
      <text x="24" y="112" fill="#707982" font-size="16">or one per client</text>
      <text x="24" y="142" fill="#707982" font-size="16">load it later</text>
    </g>
    <path d="M970 388 C860 460 406 458 206 390" fill="none" stroke="#c9944b" stroke-width="4" stroke-dasharray="10 10"/>
    <text x="428" y="462" fill="#c9944b" font-size="19" font-weight="700">Return to the project without rebuilding your setup</text>
  </g>
</svg>
